<svg width="12" height="13" viewBox="0 0 12 13" fill="none" xmlns="http://www.w3.org/2000/svg">
<path d="M11.5873 11.1044H0.409758C0.183446 11.1044 -1.52588e-05 11.2917 -1.52588e-05 11.5228V11.8338C-1.52588e-05 12.0649 0.183446 12.2522 0.409758 12.2522H11.5873C11.8137 12.2522 11.9971 12.0649 11.9971 11.8338V11.5228C11.9971 11.2917 11.8137 11.1044 11.5873 11.1044Z" fill="#919EAB"/>
<path d="M9.28248 10.5576H5.43433V3.00156H9.28248V10.5576ZM6.56496 9.40327H8.15185V4.15588H6.56496V9.40327Z" fill="#919EAB"/>
<path d="M11.1547 10.5576H8.15112V1.09519C8.15283 0.803618 8.26766 0.524626 8.47048 0.319342C8.67329 0.114059 8.94753 -0.000774148 9.23312 3.92836e-06H10.9187C11.2042 -0.000580672 11.4782 0.114338 11.6809 0.319601C11.8835 0.524863 11.9983 0.803744 12 1.09519V9.69968C11.9992 9.92786 11.9098 10.1464 11.7513 10.3073C11.5928 10.4681 11.3782 10.5582 11.1547 10.5576ZM9.28175 9.40325H10.8686V1.15214H9.28247L9.28175 9.40325Z" fill="#919EAB"/>
<path d="M5.99997 9.97933H3.28246V2.16702C3.28292 2.09827 3.29665 2.03029 3.32285 1.96696C3.34905 1.90363 3.38722 1.84618 3.43516 1.79791C3.48311 1.74964 3.5399 1.71148 3.60229 1.68562C3.66468 1.65975 3.73145 1.64669 3.79878 1.64717H5.48365C5.55098 1.64669 5.61775 1.65975 5.68014 1.68562C5.74253 1.71148 5.79932 1.74964 5.84727 1.79791C5.89521 1.84618 5.93338 1.90363 5.95958 1.96696C5.98578 2.03029 5.99951 2.09827 5.99997 2.16702V9.97933Z" fill="white"/>
<path d="M6.56495 10.5576H2.71751V2.167C2.71922 1.87543 2.83406 1.59643 3.03687 1.39115C3.23968 1.18587 3.51393 1.07103 3.79952 1.07181H5.48366C5.76913 1.07123 6.04319 1.18615 6.24585 1.39141C6.44851 1.59667 6.56325 1.87555 6.56495 2.167V10.5576ZM3.84743 9.40324H5.43432V2.22468H3.84814L3.84743 9.40324Z" fill="#919EAB"/>
<path d="M3.8482 10.5576H0.844624C0.621379 10.5578 0.40717 10.4676 0.248977 10.3067C0.0907838 10.1459 0.00152026 9.92761 0.000762939 9.69969V6.08485C0.00170958 5.82847 0.102231 5.58293 0.280273 5.40212C0.458315 5.2213 0.699338 5.11997 0.950464 5.12036H3.8482V10.5576ZM1.13068 9.40326H2.71757V6.27469H1.13068V9.40326Z" fill="#919EAB"/>
</svg>
