<svg width="12" height="15" viewBox="0 0 12 15" fill="none" xmlns="http://www.w3.org/2000/svg">
<path d="M5.99887 6.46656C5.43889 6.46656 4.89148 6.29703 4.42587 5.9794C3.96026 5.66177 3.59736 5.21031 3.38306 4.68211C3.16877 4.15391 3.1127 3.5727 3.22195 3.01196C3.33119 2.45123 3.60085 1.93616 3.99682 1.5319C4.39279 1.12763 4.89728 0.852323 5.44651 0.740786C5.99573 0.629249 6.56502 0.686494 7.08237 0.905281C7.59973 1.12407 8.04193 1.49457 8.35304 1.96994C8.66415 2.4453 8.8302 3.00418 8.8302 3.5759C8.8293 4.34227 8.53072 5.07699 7.99993 5.6189C7.46915 6.1608 6.74951 6.46565 5.99887 6.46656Z" fill="white"/>
<path d="M5.99889 7.15008C5.30632 7.15008 4.62931 6.94041 4.05347 6.54758C3.47762 6.15475 3.02881 5.5964 2.76377 4.94315C2.49874 4.2899 2.4294 3.57107 2.56451 2.87759C2.69962 2.1841 3.03312 1.54708 3.52284 1.04711C4.01255 0.547128 4.63649 0.206639 5.31575 0.068695C5.995 -0.0692487 6.69907 0.00154897 7.33891 0.272135C7.97876 0.542721 8.52564 1.00094 8.91041 1.58886C9.29518 2.17677 9.50055 2.86796 9.50055 3.57504C9.49965 4.52292 9.13044 5.43171 8.47394 6.10196C7.81745 6.77221 6.92731 7.14916 5.99889 7.15008ZM5.99889 1.3679C5.57131 1.3679 5.15334 1.49734 4.79783 1.73987C4.44232 1.98239 4.16523 2.3271 4.0016 2.7304C3.83798 3.13371 3.79517 3.57749 3.87858 4.00563C3.962 4.43378 4.16789 4.82705 4.47023 5.13573C4.77257 5.4444 5.15777 5.65461 5.57713 5.73978C5.99649 5.82494 6.43116 5.78123 6.82619 5.61418C7.22121 5.44712 7.55885 5.16423 7.79639 4.80126C8.03394 4.4383 8.16073 4.01157 8.16073 3.57504C8.16006 2.98988 7.93208 2.42888 7.5268 2.01511C7.12152 1.60134 6.57204 1.36858 5.99889 1.3679Z" fill="#EE4380"/>
<path d="M8.96411 13.8676H2.97095C2.88127 13.8686 2.7925 13.8492 2.71112 13.8107C2.62975 13.7723 2.55782 13.7157 2.50061 13.6452L0.726899 11.3844C0.683807 11.3312 0.662563 11.263 0.667618 11.1941C0.672673 11.1252 0.703635 11.061 0.754018 11.015C1.68621 10.1774 3.37009 9.04315 5.95058 9.04315C8.57767 9.04315 10.4421 10.2968 11.2344 11.0046C11.2873 11.051 11.3201 11.1168 11.3258 11.1877C11.3315 11.2586 11.3096 11.3289 11.2649 11.3835L9.42597 13.6521C9.36898 13.7202 9.29812 13.7747 9.21835 13.8119C9.13858 13.8491 9.05181 13.8681 8.96411 13.8676Z" fill="white"/>
<path d="M8.96413 14.551H2.97097C2.78092 14.5516 2.59313 14.5089 2.4213 14.426C2.24948 14.3431 2.09795 14.222 1.97776 14.0717L0.206591 11.8118C0.0559186 11.6211 -0.0168941 11.3784 0.00331152 11.1342C0.0235172 10.89 0.135184 10.6632 0.315064 10.501C1.87352 9.10024 3.82266 8.35962 5.95315 8.35962C8.04739 8.35978 10.0745 9.11407 11.6777 10.4898C11.8628 10.6533 11.9775 10.8846 11.997 11.1337C12.0165 11.3829 11.9393 11.6299 11.7819 11.8213L9.94463 14.0925C9.82412 14.2376 9.67382 14.3539 9.50438 14.4332C9.33494 14.5124 9.1505 14.5527 8.96413 14.551ZM1.49895 11.2719L3.02436 13.2169L8.9404 13.1832L10.4929 11.2676C9.18261 10.2671 7.59025 9.72646 5.95399 9.72665C4.26333 9.72665 2.76674 10.2466 1.49895 11.2719Z" fill="#EE4380"/>
</svg>
